<svg xmlns="http://www.w3.org/2000/svg" xmlns:xlink="http://www.w3.org/1999/xlink" version="1.1" width="1080" height="1080" viewBox="0 0 1080 1080" xml:space="preserve">
  <g transform="matrix(Infinity NaN NaN Infinity 0 0)" id="c5a27e70-13cf-4a54-83b2-d082e9713b02"  >
  </g>
  <g transform="matrix(1 0 0 1 540 540)" id="cbc3c39f-face-4a88-81b2-9be0b4f54b1e"  >
    <rect style="stroke: none; stroke-width: 1; stroke-dasharray: none; stroke-linecap: butt; stroke-dashoffset: 0; stroke-linejoin: miter; stroke-miterlimit: 4; fill: rgb(255,255,255); fill-rule: nonzero; opacity: 1; visibility: hidden;" vector-effect="non-scaling-stroke"  x="-540" y="-540" rx="0" ry="0" width="1080" height="1080" />
  </g>
  <g transform="matrix(5.02 0 0 5.02 540 540)"  >
    <path style="stroke: none; stroke-width: 0; stroke-dasharray: none; stroke-linecap: butt; stroke-dashoffset: 0; stroke-linejoin: miter; stroke-miterlimit: 4; fill: rgb(135,135,135); fill-rule: nonzero; opacity: 1;"  transform=" translate(-103.49, -104.64)" d="M 205 170.7 L 152.7 139.1 C 150 137.4 147.7 138.7 147.7 141.9 L 147.7 157.9 L 55.8 157.9 L 55.8 59.4 L 67.2 59.4 C 70.4 59.4 71.7 57.2 70 54.4 L 38.4 2.1 C 36.7 -0.6 34.1 -0.6 32.4 2.1 L 0.7 54.4 C -1 57.1 0.3 59.4 3.5 59.4 L 15.6 59.4 L 15.6 185.5 C 15.6 188.5 18 190.9 21 190.9 L 147.7 190.9 L 147.7 205.7 C 147.7 208.9 149.9 210.1 152.7 208.5 L 205 176.9 C 207.7 175.1 207.7 172.4 205 170.7 Z" stroke-linecap="round" />
  </g>
</svg>
